<svg width="36" height="30" viewBox="0 0 36 30" fill="none" xmlns="http://www.w3.org/2000/svg">
<mask id="path-1-inside-1_1832_321" fill="white">
<path d="M3.43619 25.4353C3.43619 26.3381 3.70663 27.2207 4.21331 27.9714C4.72 28.7221 5.44016 29.3071 6.28273 29.6526C7.1253 29.9981 8.05242 30.0884 8.94686 29.9122C9.8413 29.736 10.6629 29.3012 11.3077 28.6627C11.9525 28.0243 12.3916 27.2108 12.5694 26.3253C12.7472 25.4398 12.6558 24.5219 12.3067 23.6879C11.9575 22.8538 11.3664 22.1409 10.6081 21.6395C9.84972 21.138 8.95818 20.8704 8.04621 20.8706C6.82395 20.8723 5.65225 21.3538 4.78806 22.2095C3.92387 23.0652 3.43771 24.2252 3.43619 25.4353ZM11.7769 25.4353C11.7769 26.1658 11.5581 26.8798 11.1481 27.4872C10.7382 28.0946 10.1556 28.5679 9.47388 28.8475C8.79218 29.127 8.04207 29.2002 7.31839 29.0577C6.59471 28.9152 5.92997 28.5634 5.40823 28.0469C4.88648 27.5303 4.53117 26.8723 4.38722 26.1558C4.24327 25.4394 4.31715 24.6968 4.59952 24.0219C4.88188 23.347 5.36005 22.7702 5.97356 22.3644C6.58706 21.9585 7.30835 21.7419 8.04621 21.7419C9.03531 21.743 9.98359 22.1325 10.683 22.8249C11.3824 23.5173 11.7758 24.4561 11.7769 25.4353Z"/>
<path d="M7.60653 23.6316C7.60653 23.7471 7.65286 23.8578 7.73531 23.9394C7.81777 24.0211 7.9296 24.0669 8.04621 24.0669C8.34056 24.0678 8.62696 24.1615 8.86381 24.3345C9.10066 24.5076 9.27561 24.7508 9.36324 25.029C9.45087 25.3072 9.44661 25.6058 9.35109 25.8815C9.25557 26.1571 9.07376 26.3954 8.83208 26.5618C8.59039 26.7281 8.30143 26.8138 8.00718 26.8064C7.71292 26.7991 7.4287 26.699 7.19582 26.5208C6.96294 26.3426 6.79353 26.0955 6.7122 25.8154C6.63087 25.5353 6.64187 25.2369 6.74359 24.9635C6.78186 24.8556 6.77572 24.7371 6.7265 24.6337C6.67727 24.5303 6.58892 24.4502 6.48053 24.4107C6.37214 24.3712 6.25241 24.3756 6.14722 24.4228C6.04204 24.47 5.95984 24.5563 5.91838 24.663C5.7524 25.1112 5.73516 25.6002 5.86917 26.0588C6.00318 26.5174 6.28146 26.9218 6.66354 27.213C7.04562 27.5043 7.51159 27.6674 7.9937 27.6785C8.4758 27.6895 8.94892 27.5481 9.34426 27.2747C9.73959 27.0013 10.0365 26.6102 10.1919 26.1583C10.3473 25.7063 10.353 25.2171 10.2083 24.7617C10.0635 24.3063 9.77579 23.9085 9.38696 23.6261C8.99813 23.3437 8.52845 23.1915 8.04621 23.1915C7.98808 23.1916 7.93056 23.2031 7.87694 23.2253C7.82332 23.2475 7.77467 23.28 7.7338 23.3209C7.69293 23.3618 7.66065 23.4104 7.6388 23.4637C7.61696 23.517 7.60599 23.5741 7.60653 23.6316Z"/>
<path d="M26.5142 30C27.426 29.9997 28.3173 29.7317 29.0754 29.2299C29.8334 28.7281 30.4241 28.0151 30.7729 27.181C31.1216 26.3469 31.2127 25.4291 31.0346 24.5437C30.8565 23.6584 30.4172 22.8452 29.7723 22.207C29.1274 21.5687 28.3058 21.1341 27.4115 20.9581C26.5171 20.7821 25.5901 20.8726 24.7477 21.2182C23.9052 21.5637 23.1852 22.1488 22.6787 22.8994C22.1721 23.6501 21.9017 24.5325 21.9017 25.4353C21.903 26.6458 22.3894 27.8063 23.2542 28.6622C24.119 29.518 25.2914 29.9991 26.5142 30ZM26.5142 21.7419C27.252 21.7419 27.9733 21.9585 28.5868 22.3644C29.2003 22.7702 29.6785 23.347 29.9609 24.0219C30.2432 24.6968 30.3171 25.4394 30.1732 26.1558C30.0292 26.8723 29.6739 27.5303 29.1522 28.0469C28.6304 28.5634 27.9657 28.9152 27.242 29.0577C26.5183 29.2002 25.7682 29.127 25.0865 28.8475C24.4048 28.5679 23.8222 28.0946 23.4122 27.4872C23.0023 26.8798 22.7835 26.1658 22.7835 25.4353C22.7848 24.4561 23.1783 23.5175 23.8776 22.8251C24.577 22.1327 25.5251 21.7432 26.5142 21.7419Z"/>
<path d="M26.5142 27.6791C27.1153 27.6791 27.6918 27.4427 28.1168 27.0219C28.5418 26.6011 28.7806 26.0304 28.7806 25.4353C28.7806 24.8402 28.5418 24.2695 28.1168 23.8487C27.6918 23.4279 27.1153 23.1915 26.5142 23.1915C26.4007 23.1963 26.2936 23.2444 26.2151 23.3255C26.1365 23.4067 26.0927 23.5148 26.0927 23.6272C26.0927 23.7396 26.1365 23.8476 26.2151 23.9288C26.2936 24.01 26.4007 24.058 26.5142 24.0629C26.8089 24.0632 27.0958 24.1566 27.3332 24.3294C27.5706 24.5022 27.7462 24.7455 27.8344 25.0239C27.9226 25.3023 27.9189 25.6012 27.8237 25.8774C27.7286 26.1535 27.5469 26.3924 27.3053 26.5593C27.0636 26.7263 26.7744 26.8126 26.4798 26.8057C26.1852 26.7988 25.9005 26.6991 25.667 26.5211C25.4335 26.343 25.2635 26.0959 25.1816 25.8157C25.0997 25.5354 25.1102 25.2366 25.2116 24.9626C25.2516 24.8542 25.2465 24.7345 25.1973 24.6298C25.1482 24.525 25.059 24.444 24.9495 24.4043C24.8399 24.3647 24.719 24.3698 24.6132 24.4184C24.5075 24.4671 24.4256 24.5554 24.3855 24.6638C24.2602 25.0032 24.2195 25.3676 24.2669 25.7259C24.3143 26.0842 24.4484 26.4259 24.6578 26.722C24.8671 27.018 25.1456 27.2596 25.4696 27.4262C25.7935 27.5928 26.1532 27.6796 26.5183 27.6791H26.5142Z"/>
<path d="M17.9996 1.91977C18.1162 1.91977 18.228 1.87391 18.3105 1.79228C18.3929 1.71065 18.4393 1.59993 18.4393 1.48449V0.435277C18.4393 0.319834 18.3929 0.20912 18.3105 0.12749C18.228 0.0458594 18.1162 0 17.9996 0C17.883 0 17.7711 0.0458594 17.6887 0.12749C17.6062 0.20912 17.5599 0.319834 17.5599 0.435277V1.48449C17.5599 1.59993 17.6062 1.71065 17.6887 1.79228C17.7711 1.87391 17.883 1.91977 17.9996 1.91977Z"/>
<path d="M15.5953 2.63359C15.6778 2.63331 15.7585 2.61012 15.8283 2.56667C15.8981 2.52322 15.9542 2.46125 15.9901 2.38781C16.0261 2.31437 16.0406 2.2324 16.0318 2.15124C16.0231 2.07008 15.9915 1.99297 15.9407 1.9287L15.241 1.0484C15.167 0.962893 15.0625 0.909009 14.9494 0.898022C14.8362 0.887035 14.7231 0.919795 14.6338 0.989449C14.5445 1.0591 14.4858 1.16025 14.4701 1.27174C14.4544 1.38323 14.4828 1.49642 14.5495 1.58762L15.2492 2.46711C15.2904 2.51898 15.3429 2.56092 15.4029 2.58975C15.4629 2.61859 15.5287 2.63358 15.5953 2.63359Z"/>
<path d="M20.1332 2.5402C20.1784 2.57566 20.2304 2.6019 20.2859 2.61742C20.3415 2.63295 20.3996 2.63744 20.4569 2.63065C20.5143 2.62386 20.5697 2.60591 20.62 2.57784C20.6703 2.54978 20.7145 2.51215 20.75 2.46711L21.4505 1.58762C21.5172 1.49642 21.5456 1.38323 21.5299 1.27174C21.5142 1.16025 21.4555 1.0591 21.3662 0.989449C21.2769 0.919795 21.1638 0.887035 21.0506 0.898022C20.9375 0.909009 20.833 0.962893 20.759 1.0484L20.0593 1.9287C20.0236 1.97364 19.9972 2.02511 19.9815 2.08017C19.9659 2.13523 19.9614 2.1928 19.9682 2.24959C19.9751 2.30639 19.9932 2.36128 20.0215 2.41114C20.0498 2.46101 20.0877 2.50486 20.1332 2.5402Z"/>
<path d="M23.5784 15.8178C23.5785 15.7605 23.5672 15.7038 23.5451 15.6509C23.5231 15.598 23.4907 15.55 23.4499 15.5095C23.409 15.4689 23.3605 15.4368 23.3071 15.4149C23.2537 15.393 23.1965 15.3817 23.1387 15.3817H22.0141C21.9006 15.3865 21.7935 15.4345 21.715 15.5157C21.6364 15.5969 21.5926 15.705 21.5926 15.8174C21.5926 15.9298 21.6364 16.0378 21.715 16.119C21.7935 16.2002 21.9006 16.2482 22.0141 16.253H23.1387C23.2553 16.253 23.3671 16.2072 23.4496 16.1256C23.532 16.0439 23.5784 15.9332 23.5784 15.8178Z"/>
<path d="M36 17.8374C35.9988 17.3689 35.8881 16.9071 35.6765 16.4881C35.4648 16.0691 35.1581 15.7043 34.7802 15.4223L31.3514 12.878C31.1297 12.7139 30.942 12.5091 30.7985 12.2746L28.5887 8.67143C28.3153 8.2294 27.9323 7.86394 27.476 7.6098C27.0197 7.35565 26.5053 7.22127 25.9818 7.21942H2.48219C1.82408 7.22007 1.1931 7.47918 0.727739 7.93988C0.262378 8.40059 0.000653344 9.02525 1.84882e-06 9.67679V23.414C-0.000594228 23.8971 0.142958 24.3697 0.412644 24.7723C0.68233 25.175 1.06614 25.4898 1.51589 25.6773C1.62286 25.7201 1.74256 25.7197 1.84917 25.6759C1.95578 25.6322 2.04075 25.5488 2.08576 25.4436C2.13076 25.3384 2.13218 25.2199 2.08972 25.1136C2.04725 25.0074 1.96431 24.922 1.85877 24.8757C1.56832 24.7546 1.32045 24.5512 1.14622 24.2912C0.971995 24.0312 0.87916 23.726 0.879351 23.414V9.67679C0.880002 9.25621 1.04911 8.85306 1.34958 8.55574C1.65006 8.25843 2.05737 8.09122 2.48219 8.09079H25.9818C26.3543 8.09184 26.7204 8.18733 27.045 8.36816C27.3697 8.54898 27.6422 8.80912 27.8365 9.12376L30.0472 12.7262C30.2486 13.0558 30.5124 13.344 30.824 13.5748L34.252 16.1182C34.521 16.3189 34.7395 16.5786 34.8902 16.8769C35.0409 17.1751 35.1198 17.5039 35.1206 17.8374V23.414C35.12 23.8346 34.9509 24.2377 34.6504 24.535C34.3499 24.8324 33.9426 24.9996 33.5178 25H32.8616C32.745 25 32.6331 25.0459 32.5507 25.1275C32.4682 25.2091 32.4219 25.3198 32.4219 25.4353C32.4219 25.5507 32.4682 25.6614 32.5507 25.7431C32.6331 25.8247 32.745 25.8706 32.8616 25.8706H33.5178C34.1758 25.8699 34.8066 25.6109 35.272 25.1504C35.7373 24.6898 35.9991 24.0654 36 23.414V17.8374Z"/>
<path d="M13.885 25.4353C13.885 25.5507 13.9313 25.6614 14.0138 25.7431C14.0963 25.8247 14.2081 25.8706 14.3247 25.8706H20.3431C20.4598 25.8706 20.5716 25.8247 20.654 25.7431C20.7365 25.6614 20.7828 25.5507 20.7828 25.4353C20.7828 25.3198 20.7365 25.2091 20.654 25.1275C20.5716 25.0459 20.4598 25 20.3431 25H14.3222C14.2061 25.0006 14.0948 25.0468 14.0129 25.1283C13.931 25.2099 13.885 25.3203 13.885 25.4353Z"/>
<path d="M15.5518 5.44989V5.96069C15.5518 6.07614 15.5982 6.18685 15.6806 6.26848C15.7631 6.35011 15.8749 6.39597 15.9915 6.39597C16.1081 6.39597 16.22 6.35011 16.3024 6.26848C16.3849 6.18685 16.4312 6.07614 16.4312 5.96069V5.44989C16.4312 5.03809 16.5964 4.64315 16.8906 4.35197C17.1847 4.06078 17.5836 3.89719 17.9996 3.89719C18.4155 3.89719 18.8145 4.06078 19.1086 4.35197C19.4027 4.64315 19.568 5.03809 19.568 5.44989V5.96069C19.568 6.07614 19.6143 6.18685 19.6968 6.26848C19.7792 6.35011 19.891 6.39597 20.0077 6.39597C20.1243 6.39597 20.2361 6.35011 20.3185 6.26848C20.401 6.18685 20.4473 6.07614 20.4473 5.96069V5.44989C20.4473 4.80721 20.1894 4.19084 19.7304 3.73639C19.2714 3.28194 18.6488 3.02664 17.9996 3.02664C17.3504 3.02664 16.7278 3.28194 16.2688 3.73639C15.8097 4.19084 15.5518 4.80721 15.5518 5.44989Z"/>
<path d="M26.6052 10.2753C26.4544 10.0157 26.2372 9.79995 25.9754 9.64984C25.7136 9.49972 25.4165 9.42051 25.1139 9.42017H22.5505C22.3786 9.42049 22.2085 9.45437 22.0498 9.51987C21.8911 9.58537 21.747 9.68121 21.6258 9.80189C21.5046 9.92258 21.4086 10.0657 21.3433 10.2232C21.2781 10.3807 21.2448 10.5493 21.2455 10.7195V12.9121C21.2457 13.255 21.3833 13.5838 21.6281 13.8264C21.873 14.0689 22.205 14.2053 22.5514 14.2058H26.5084C26.7503 14.2057 26.9879 14.1426 27.1974 14.0229C27.4069 13.9031 27.5808 13.7309 27.7018 13.5236C27.8229 13.3163 27.8866 13.0811 27.8868 12.8416C27.887 12.6021 27.8235 12.3668 27.7028 12.1593L26.6052 10.2753ZM26.9399 13.0867C26.8962 13.1617 26.8331 13.2238 26.7571 13.2666C26.6812 13.3094 26.595 13.3314 26.5076 13.3304H22.5505C22.4373 13.3301 22.3288 13.2855 22.2489 13.2061C22.1689 13.1268 22.124 13.0193 22.124 12.9073V10.7195C22.124 10.6075 22.1689 10.5001 22.2489 10.4209C22.3289 10.3417 22.4374 10.2972 22.5505 10.2972H25.1139C25.2617 10.2975 25.4068 10.3361 25.5347 10.4092C25.6627 10.4823 25.769 10.5873 25.8432 10.7138L26.9399 12.597C26.9836 12.6714 27.0066 12.7559 27.0066 12.8419C27.0066 12.9279 26.9836 13.0124 26.9399 13.0867Z"/>
<path d="M13.3822 11.6737H10.722C10.6054 11.6737 10.4935 11.7196 10.4111 11.8012C10.3286 11.8828 10.2823 11.9935 10.2823 12.109V13.5382H8.83861C8.722 13.5382 8.61017 13.5841 8.52771 13.6657C8.44526 13.7474 8.39893 13.8581 8.39893 13.9735V16.6071C8.39893 16.7226 8.44526 16.8333 8.52771 16.9149C8.61017 16.9965 8.722 17.0424 8.83861 17.0424H10.2823V17.1236C10.2823 17.239 10.3286 17.3498 10.4111 17.4314C10.4935 17.513 10.6054 17.5589 10.722 17.5589C10.8386 17.5589 10.9504 17.513 11.0329 17.4314C11.1153 17.3498 11.1617 17.239 11.1617 17.1236V16.6071C11.1618 16.5499 11.1505 16.4932 11.1284 16.4403C11.1064 16.3874 11.074 16.3393 11.0332 16.2988C10.9923 16.2583 10.9438 16.2262 10.8904 16.2042C10.837 16.1823 10.7798 16.171 10.722 16.171H9.27828V14.4088H10.722C10.8386 14.4088 10.9504 14.3629 11.0329 14.2813C11.1153 14.1997 11.1617 14.089 11.1617 13.9735V12.5443H12.9425V13.9735C12.9425 14.0307 12.9539 14.0873 12.976 14.1401C12.9981 14.1929 13.0305 14.2409 13.0713 14.2813C13.1121 14.3217 13.1606 14.3538 13.2139 14.3757C13.2673 14.3975 13.3244 14.4088 13.3822 14.4088H14.8251V16.171H13.3822C13.3244 16.171 13.2671 16.1823 13.2137 16.2042C13.1603 16.2262 13.1118 16.2583 13.071 16.2988C13.0302 16.3393 12.9978 16.3874 12.9757 16.4403C12.9537 16.4932 12.9424 16.5499 12.9425 16.6071V18.0356H10.722C10.6086 18.0404 10.5014 18.0884 10.4229 18.1696C10.3443 18.2508 10.3005 18.3588 10.3005 18.4713C10.3005 18.5837 10.3443 18.6917 10.4229 18.7729C10.5014 18.8541 10.6086 18.9021 10.722 18.9069H13.3822C13.44 18.9069 13.4972 18.8956 13.5506 18.8737C13.604 18.8518 13.6525 18.8197 13.6934 18.7792C13.7342 18.7387 13.7666 18.6906 13.7886 18.6377C13.8107 18.5848 13.822 18.5281 13.8219 18.4708V17.0424H15.2656C15.3233 17.0424 15.3805 17.0311 15.4338 17.0093C15.4872 16.9874 15.5356 16.9553 15.5765 16.9149C15.6173 16.8745 15.6497 16.8265 15.6718 16.7737C15.6939 16.7209 15.7052 16.6643 15.7052 16.6071V13.9735C15.7052 13.9164 15.6939 13.8598 15.6718 13.807C15.6497 13.7541 15.6173 13.7062 15.5765 13.6657C15.5356 13.6253 15.4872 13.5933 15.4338 13.5714C15.3805 13.5495 15.3233 13.5382 15.2656 13.5382H13.8219V12.109C13.8219 12.0518 13.8105 11.9952 13.7884 11.9424C13.7663 11.8896 13.7339 11.8416 13.6931 11.8012C13.6523 11.7608 13.6038 11.7287 13.5504 11.7068C13.4971 11.685 13.4399 11.6737 13.3822 11.6737Z"/>
</mask>
<path d="M3.43619 25.4353C3.43619 26.3381 3.70663 27.2207 4.21331 27.9714C4.72 28.7221 5.44016 29.3071 6.28273 29.6526C7.1253 29.9981 8.05242 30.0884 8.94686 29.9122C9.8413 29.736 10.6629 29.3012 11.3077 28.6627C11.9525 28.0243 12.3916 27.2108 12.5694 26.3253C12.7472 25.4398 12.6558 24.5219 12.3067 23.6879C11.9575 22.8538 11.3664 22.1409 10.6081 21.6395C9.84972 21.138 8.95818 20.8704 8.04621 20.8706C6.82395 20.8723 5.65225 21.3538 4.78806 22.2095C3.92387 23.0652 3.43771 24.2252 3.43619 25.4353ZM11.7769 25.4353C11.7769 26.1658 11.5581 26.8798 11.1481 27.4872C10.7382 28.0946 10.1556 28.5679 9.47388 28.8475C8.79218 29.127 8.04207 29.2002 7.31839 29.0577C6.59471 28.9152 5.92997 28.5634 5.40823 28.0469C4.88648 27.5303 4.53117 26.8723 4.38722 26.1558C4.24327 25.4394 4.31715 24.6968 4.59952 24.0219C4.88188 23.347 5.36005 22.7702 5.97356 22.3644C6.58706 21.9585 7.30835 21.7419 8.04621 21.7419C9.03531 21.743 9.98359 22.1325 10.683 22.8249C11.3824 23.5173 11.7758 24.4561 11.7769 25.4353Z" fill="white"/>
<path d="M7.60653 23.6316C7.60653 23.7471 7.65286 23.8578 7.73531 23.9394C7.81777 24.0211 7.9296 24.0669 8.04621 24.0669C8.34056 24.0678 8.62696 24.1615 8.86381 24.3345C9.10066 24.5076 9.27561 24.7508 9.36324 25.029C9.45087 25.3072 9.44661 25.6058 9.35109 25.8815C9.25557 26.1571 9.07376 26.3954 8.83208 26.5618C8.59039 26.7281 8.30143 26.8138 8.00718 26.8064C7.71292 26.7991 7.4287 26.699 7.19582 26.5208C6.96294 26.3426 6.79353 26.0955 6.7122 25.8154C6.63087 25.5353 6.64187 25.2369 6.74359 24.9635C6.78186 24.8556 6.77572 24.7371 6.7265 24.6337C6.67727 24.5303 6.58892 24.4502 6.48053 24.4107C6.37214 24.3712 6.25241 24.3756 6.14722 24.4228C6.04204 24.47 5.95984 24.5563 5.91838 24.663C5.7524 25.1112 5.73516 25.6002 5.86917 26.0588C6.00318 26.5174 6.28146 26.9218 6.66354 27.213C7.04562 27.5043 7.51159 27.6674 7.9937 27.6785C8.4758 27.6895 8.94892 27.5481 9.34426 27.2747C9.73959 27.0013 10.0365 26.6102 10.1919 26.1583C10.3473 25.7063 10.353 25.2171 10.2083 24.7617C10.0635 24.3063 9.77579 23.9085 9.38696 23.6261C8.99813 23.3437 8.52845 23.1915 8.04621 23.1915C7.98808 23.1916 7.93056 23.2031 7.87694 23.2253C7.82332 23.2475 7.77467 23.28 7.7338 23.3209C7.69293 23.3618 7.66065 23.4104 7.6388 23.4637C7.61696 23.517 7.60599 23.5741 7.60653 23.6316Z" fill="white"/>
<path d="M26.5142 30C27.426 29.9997 28.3173 29.7317 29.0754 29.2299C29.8334 28.7281 30.4241 28.0151 30.7729 27.181C31.1216 26.3469 31.2127 25.4291 31.0346 24.5437C30.8565 23.6584 30.4172 22.8452 29.7723 22.207C29.1274 21.5687 28.3058 21.1341 27.4115 20.9581C26.5171 20.7821 25.5901 20.8726 24.7477 21.2182C23.9052 21.5637 23.1852 22.1488 22.6787 22.8994C22.1721 23.6501 21.9017 24.5325 21.9017 25.4353C21.903 26.6458 22.3894 27.8063 23.2542 28.6622C24.119 29.518 25.2914 29.9991 26.5142 30ZM26.5142 21.7419C27.252 21.7419 27.9733 21.9585 28.5868 22.3644C29.2003 22.7702 29.6785 23.347 29.9609 24.0219C30.2432 24.6968 30.3171 25.4394 30.1732 26.1558C30.0292 26.8723 29.6739 27.5303 29.1522 28.0469C28.6304 28.5634 27.9657 28.9152 27.242 29.0577C26.5183 29.2002 25.7682 29.127 25.0865 28.8475C24.4048 28.5679 23.8222 28.0946 23.4122 27.4872C23.0023 26.8798 22.7835 26.1658 22.7835 25.4353C22.7848 24.4561 23.1783 23.5175 23.8776 22.8251C24.577 22.1327 25.5251 21.7432 26.5142 21.7419Z" fill="white"/>
<path d="M26.5142 27.6791C27.1153 27.6791 27.6918 27.4427 28.1168 27.0219C28.5418 26.6011 28.7806 26.0304 28.7806 25.4353C28.7806 24.8402 28.5418 24.2695 28.1168 23.8487C27.6918 23.4279 27.1153 23.1915 26.5142 23.1915C26.4007 23.1963 26.2936 23.2444 26.2151 23.3255C26.1365 23.4067 26.0927 23.5148 26.0927 23.6272C26.0927 23.7396 26.1365 23.8476 26.2151 23.9288C26.2936 24.01 26.4007 24.058 26.5142 24.0629C26.8089 24.0632 27.0958 24.1566 27.3332 24.3294C27.5706 24.5022 27.7462 24.7455 27.8344 25.0239C27.9226 25.3023 27.9189 25.6012 27.8237 25.8774C27.7286 26.1535 27.5469 26.3924 27.3053 26.5593C27.0636 26.7263 26.7744 26.8126 26.4798 26.8057C26.1852 26.7988 25.9005 26.6991 25.667 26.5211C25.4335 26.343 25.2635 26.0959 25.1816 25.8157C25.0997 25.5354 25.1102 25.2366 25.2116 24.9626C25.2516 24.8542 25.2465 24.7345 25.1973 24.6298C25.1482 24.525 25.059 24.444 24.9495 24.4043C24.8399 24.3647 24.719 24.3698 24.6132 24.4184C24.5075 24.4671 24.4256 24.5554 24.3855 24.6638C24.2602 25.0032 24.2195 25.3676 24.2669 25.7259C24.3143 26.0842 24.4484 26.4259 24.6578 26.722C24.8671 27.018 25.1456 27.2596 25.4696 27.4262C25.7935 27.5928 26.1532 27.6796 26.5183 27.6791H26.5142Z" fill="white"/>
<path d="M17.9996 1.91977C18.1162 1.91977 18.228 1.87391 18.3105 1.79228C18.3929 1.71065 18.4393 1.59993 18.4393 1.48449V0.435277C18.4393 0.319834 18.3929 0.20912 18.3105 0.12749C18.228 0.0458594 18.1162 0 17.9996 0C17.883 0 17.7711 0.0458594 17.6887 0.12749C17.6062 0.20912 17.5599 0.319834 17.5599 0.435277V1.48449C17.5599 1.59993 17.6062 1.71065 17.6887 1.79228C17.7711 1.87391 17.883 1.91977 17.9996 1.91977Z" fill="white"/>
<path d="M15.5953 2.63359C15.6778 2.63331 15.7585 2.61012 15.8283 2.56667C15.8981 2.52322 15.9542 2.46125 15.9901 2.38781C16.0261 2.31437 16.0406 2.2324 16.0318 2.15124C16.0231 2.07008 15.9915 1.99297 15.9407 1.9287L15.241 1.0484C15.167 0.962893 15.0625 0.909009 14.9494 0.898022C14.8362 0.887035 14.7231 0.919795 14.6338 0.989449C14.5445 1.0591 14.4858 1.16025 14.4701 1.27174C14.4544 1.38323 14.4828 1.49642 14.5495 1.58762L15.2492 2.46711C15.2904 2.51898 15.3429 2.56092 15.4029 2.58975C15.4629 2.61859 15.5287 2.63358 15.5953 2.63359Z" fill="white"/>
<path d="M20.1332 2.5402C20.1784 2.57566 20.2304 2.6019 20.2859 2.61742C20.3415 2.63295 20.3996 2.63744 20.4569 2.63065C20.5143 2.62386 20.5697 2.60591 20.62 2.57784C20.6703 2.54978 20.7145 2.51215 20.75 2.46711L21.4505 1.58762C21.5172 1.49642 21.5456 1.38323 21.5299 1.27174C21.5142 1.16025 21.4555 1.0591 21.3662 0.989449C21.2769 0.919795 21.1638 0.887035 21.0506 0.898022C20.9375 0.909009 20.833 0.962893 20.759 1.0484L20.0593 1.9287C20.0236 1.97364 19.9972 2.02511 19.9815 2.08017C19.9659 2.13523 19.9614 2.1928 19.9682 2.24959C19.9751 2.30639 19.9932 2.36128 20.0215 2.41114C20.0498 2.46101 20.0877 2.50486 20.1332 2.5402Z" fill="white"/>
<path d="M23.5784 15.8178C23.5785 15.7605 23.5672 15.7038 23.5451 15.6509C23.5231 15.598 23.4907 15.55 23.4499 15.5095C23.409 15.4689 23.3605 15.4368 23.3071 15.4149C23.2537 15.393 23.1965 15.3817 23.1387 15.3817H22.0141C21.9006 15.3865 21.7935 15.4345 21.715 15.5157C21.6364 15.5969 21.5926 15.705 21.5926 15.8174C21.5926 15.9298 21.6364 16.0378 21.715 16.119C21.7935 16.2002 21.9006 16.2482 22.0141 16.253H23.1387C23.2553 16.253 23.3671 16.2072 23.4496 16.1256C23.532 16.0439 23.5784 15.9332 23.5784 15.8178Z" fill="white"/>
<path d="M36 17.8374C35.9988 17.3689 35.8881 16.9071 35.6765 16.4881C35.4648 16.0691 35.1581 15.7043 34.7802 15.4223L31.3514 12.878C31.1297 12.7139 30.942 12.5091 30.7985 12.2746L28.5887 8.67143C28.3153 8.2294 27.9323 7.86394 27.476 7.6098C27.0197 7.35565 26.5053 7.22127 25.9818 7.21942H2.48219C1.82408 7.22007 1.1931 7.47918 0.727739 7.93988C0.262378 8.40059 0.000653344 9.02525 1.84882e-06 9.67679V23.414C-0.000594228 23.8971 0.142958 24.3697 0.412644 24.7723C0.68233 25.175 1.06614 25.4898 1.51589 25.6773C1.62286 25.7201 1.74256 25.7197 1.84917 25.6759C1.95578 25.6322 2.04075 25.5488 2.08576 25.4436C2.13076 25.3384 2.13218 25.2199 2.08972 25.1136C2.04725 25.0074 1.96431 24.922 1.85877 24.8757C1.56832 24.7546 1.32045 24.5512 1.14622 24.2912C0.971995 24.0312 0.87916 23.726 0.879351 23.414V9.67679C0.880002 9.25621 1.04911 8.85306 1.34958 8.55574C1.65006 8.25843 2.05737 8.09122 2.48219 8.09079H25.9818C26.3543 8.09184 26.7204 8.18733 27.045 8.36816C27.3697 8.54898 27.6422 8.80912 27.8365 9.12376L30.0472 12.7262C30.2486 13.0558 30.5124 13.344 30.824 13.5748L34.252 16.1182C34.521 16.3189 34.7395 16.5786 34.8902 16.8769C35.0409 17.1751 35.1198 17.5039 35.1206 17.8374V23.414C35.12 23.8346 34.9509 24.2377 34.6504 24.535C34.3499 24.8324 33.9426 24.9996 33.5178 25H32.8616C32.745 25 32.6331 25.0459 32.5507 25.1275C32.4682 25.2091 32.4219 25.3198 32.4219 25.4353C32.4219 25.5507 32.4682 25.6614 32.5507 25.7431C32.6331 25.8247 32.745 25.8706 32.8616 25.8706H33.5178C34.1758 25.8699 34.8066 25.6109 35.272 25.1504C35.7373 24.6898 35.9991 24.0654 36 23.414V17.8374Z" fill="white"/>
<path d="M13.885 25.4353C13.885 25.5507 13.9313 25.6614 14.0138 25.7431C14.0963 25.8247 14.2081 25.8706 14.3247 25.8706H20.3431C20.4598 25.8706 20.5716 25.8247 20.654 25.7431C20.7365 25.6614 20.7828 25.5507 20.7828 25.4353C20.7828 25.3198 20.7365 25.2091 20.654 25.1275C20.5716 25.0459 20.4598 25 20.3431 25H14.3222C14.2061 25.0006 14.0948 25.0468 14.0129 25.1283C13.931 25.2099 13.885 25.3203 13.885 25.4353Z" fill="white"/>
<path d="M15.5518 5.44989V5.96069C15.5518 6.07614 15.5982 6.18685 15.6806 6.26848C15.7631 6.35011 15.8749 6.39597 15.9915 6.39597C16.1081 6.39597 16.22 6.35011 16.3024 6.26848C16.3849 6.18685 16.4312 6.07614 16.4312 5.96069V5.44989C16.4312 5.03809 16.5964 4.64315 16.8906 4.35197C17.1847 4.06078 17.5836 3.89719 17.9996 3.89719C18.4155 3.89719 18.8145 4.06078 19.1086 4.35197C19.4027 4.64315 19.568 5.03809 19.568 5.44989V5.96069C19.568 6.07614 19.6143 6.18685 19.6968 6.26848C19.7792 6.35011 19.891 6.39597 20.0077 6.39597C20.1243 6.39597 20.2361 6.35011 20.3185 6.26848C20.401 6.18685 20.4473 6.07614 20.4473 5.96069V5.44989C20.4473 4.80721 20.1894 4.19084 19.7304 3.73639C19.2714 3.28194 18.6488 3.02664 17.9996 3.02664C17.3504 3.02664 16.7278 3.28194 16.2688 3.73639C15.8097 4.19084 15.5518 4.80721 15.5518 5.44989Z" fill="white"/>
<path d="M26.6052 10.2753C26.4544 10.0157 26.2372 9.79995 25.9754 9.64984C25.7136 9.49972 25.4165 9.42051 25.1139 9.42017H22.5505C22.3786 9.42049 22.2085 9.45437 22.0498 9.51987C21.8911 9.58537 21.747 9.68121 21.6258 9.80189C21.5046 9.92258 21.4086 10.0657 21.3433 10.2232C21.2781 10.3807 21.2448 10.5493 21.2455 10.7195V12.9121C21.2457 13.255 21.3833 13.5838 21.6281 13.8264C21.873 14.0689 22.205 14.2053 22.5514 14.2058H26.5084C26.7503 14.2057 26.9879 14.1426 27.1974 14.0229C27.4069 13.9031 27.5808 13.7309 27.7018 13.5236C27.8229 13.3163 27.8866 13.0811 27.8868 12.8416C27.887 12.6021 27.8235 12.3668 27.7028 12.1593L26.6052 10.2753ZM26.9399 13.0867C26.8962 13.1617 26.8331 13.2238 26.7571 13.2666C26.6812 13.3094 26.595 13.3314 26.5076 13.3304H22.5505C22.4373 13.3301 22.3288 13.2855 22.2489 13.2061C22.1689 13.1268 22.124 13.0193 22.124 12.9073V10.7195C22.124 10.6075 22.1689 10.5001 22.2489 10.4209C22.3289 10.3417 22.4374 10.2972 22.5505 10.2972H25.1139C25.2617 10.2975 25.4068 10.3361 25.5347 10.4092C25.6627 10.4823 25.769 10.5873 25.8432 10.7138L26.9399 12.597C26.9836 12.6714 27.0066 12.7559 27.0066 12.8419C27.0066 12.9279 26.9836 13.0124 26.9399 13.0867Z" fill="white"/>
<path d="M13.3822 11.6737H10.722C10.6054 11.6737 10.4935 11.7196 10.4111 11.8012C10.3286 11.8828 10.2823 11.9935 10.2823 12.109V13.5382H8.83861C8.722 13.5382 8.61017 13.5841 8.52771 13.6657C8.44526 13.7474 8.39893 13.8581 8.39893 13.9735V16.6071C8.39893 16.7226 8.44526 16.8333 8.52771 16.9149C8.61017 16.9965 8.722 17.0424 8.83861 17.0424H10.2823V17.1236C10.2823 17.239 10.3286 17.3498 10.4111 17.4314C10.4935 17.513 10.6054 17.5589 10.722 17.5589C10.8386 17.5589 10.9504 17.513 11.0329 17.4314C11.1153 17.3498 11.1617 17.239 11.1617 17.1236V16.6071C11.1618 16.5499 11.1505 16.4932 11.1284 16.4403C11.1064 16.3874 11.074 16.3393 11.0332 16.2988C10.9923 16.2583 10.9438 16.2262 10.8904 16.2042C10.837 16.1823 10.7798 16.171 10.722 16.171H9.27828V14.4088H10.722C10.8386 14.4088 10.9504 14.3629 11.0329 14.2813C11.1153 14.1997 11.1617 14.089 11.1617 13.9735V12.5443H12.9425V13.9735C12.9425 14.0307 12.9539 14.0873 12.976 14.1401C12.9981 14.1929 13.0305 14.2409 13.0713 14.2813C13.1121 14.3217 13.1606 14.3538 13.2139 14.3757C13.2673 14.3975 13.3244 14.4088 13.3822 14.4088H14.8251V16.171H13.3822C13.3244 16.171 13.2671 16.1823 13.2137 16.2042C13.1603 16.2262 13.1118 16.2583 13.071 16.2988C13.0302 16.3393 12.9978 16.3874 12.9757 16.4403C12.9537 16.4932 12.9424 16.5499 12.9425 16.6071V18.0356H10.722C10.6086 18.0404 10.5014 18.0884 10.4229 18.1696C10.3443 18.2508 10.3005 18.3588 10.3005 18.4713C10.3005 18.5837 10.3443 18.6917 10.4229 18.7729C10.5014 18.8541 10.6086 18.9021 10.722 18.9069H13.3822C13.44 18.9069 13.4972 18.8956 13.5506 18.8737C13.604 18.8518 13.6525 18.8197 13.6934 18.7792C13.7342 18.7387 13.7666 18.6906 13.7886 18.6377C13.8107 18.5848 13.822 18.5281 13.8219 18.4708V17.0424H15.2656C15.3233 17.0424 15.3805 17.0311 15.4338 17.0093C15.4872 16.9874 15.5356 16.9553 15.5765 16.9149C15.6173 16.8745 15.6497 16.8265 15.6718 16.7737C15.6939 16.7209 15.7052 16.6643 15.7052 16.6071V13.9735C15.7052 13.9164 15.6939 13.8598 15.6718 13.807C15.6497 13.7541 15.6173 13.7062 15.5765 13.6657C15.5356 13.6253 15.4872 13.5933 15.4338 13.5714C15.3805 13.5495 15.3233 13.5382 15.2656 13.5382H13.8219V12.109C13.8219 12.0518 13.8105 11.9952 13.7884 11.9424C13.7663 11.8896 13.7339 11.8416 13.6931 11.8012C13.6523 11.7608 13.6038 11.7287 13.5504 11.7068C13.4971 11.685 13.4399 11.6737 13.3822 11.6737Z" fill="white"/>
<path d="M3.43619 25.4353C3.43619 26.3381 3.70663 27.2207 4.21331 27.9714C4.72 28.7221 5.44016 29.3071 6.28273 29.6526C7.1253 29.9981 8.05242 30.0884 8.94686 29.9122C9.8413 29.736 10.6629 29.3012 11.3077 28.6627C11.9525 28.0243 12.3916 27.2108 12.5694 26.3253C12.7472 25.4398 12.6558 24.5219 12.3067 23.6879C11.9575 22.8538 11.3664 22.1409 10.6081 21.6395C9.84972 21.138 8.95818 20.8704 8.04621 20.8706C6.82395 20.8723 5.65225 21.3538 4.78806 22.2095C3.92387 23.0652 3.43771 24.2252 3.43619 25.4353ZM11.7769 25.4353C11.7769 26.1658 11.5581 26.8798 11.1481 27.4872C10.7382 28.0946 10.1556 28.5679 9.47388 28.8475C8.79218 29.127 8.04207 29.2002 7.31839 29.0577C6.59471 28.9152 5.92997 28.5634 5.40823 28.0469C4.88648 27.5303 4.53117 26.8723 4.38722 26.1558C4.24327 25.4394 4.31715 24.6968 4.59952 24.0219C4.88188 23.347 5.36005 22.7702 5.97356 22.3644C6.58706 21.9585 7.30835 21.7419 8.04621 21.7419C9.03531 21.743 9.98359 22.1325 10.683 22.8249C11.3824 23.5173 11.7758 24.4561 11.7769 25.4353Z" stroke="white" stroke-width="4" mask="url(#path-1-inside-1_1832_321)"/>
<path d="M7.60653 23.6316C7.60653 23.7471 7.65286 23.8578 7.73531 23.9394C7.81777 24.0211 7.9296 24.0669 8.04621 24.0669C8.34056 24.0678 8.62696 24.1615 8.86381 24.3345C9.10066 24.5076 9.27561 24.7508 9.36324 25.029C9.45087 25.3072 9.44661 25.6058 9.35109 25.8815C9.25557 26.1571 9.07376 26.3954 8.83208 26.5618C8.59039 26.7281 8.30143 26.8138 8.00718 26.8064C7.71292 26.7991 7.4287 26.699 7.19582 26.5208C6.96294 26.3426 6.79353 26.0955 6.7122 25.8154C6.63087 25.5353 6.64187 25.2369 6.74359 24.9635C6.78186 24.8556 6.77572 24.7371 6.7265 24.6337C6.67727 24.5303 6.58892 24.4502 6.48053 24.4107C6.37214 24.3712 6.25241 24.3756 6.14722 24.4228C6.04204 24.47 5.95984 24.5563 5.91838 24.663C5.7524 25.1112 5.73516 25.6002 5.86917 26.0588C6.00318 26.5174 6.28146 26.9218 6.66354 27.213C7.04562 27.5043 7.51159 27.6674 7.9937 27.6785C8.4758 27.6895 8.94892 27.5481 9.34426 27.2747C9.73959 27.0013 10.0365 26.6102 10.1919 26.1583C10.3473 25.7063 10.353 25.2171 10.2083 24.7617C10.0635 24.3063 9.77579 23.9085 9.38696 23.6261C8.99813 23.3437 8.52845 23.1915 8.04621 23.1915C7.98808 23.1916 7.93056 23.2031 7.87694 23.2253C7.82332 23.2475 7.77467 23.28 7.7338 23.3209C7.69293 23.3618 7.66065 23.4104 7.6388 23.4637C7.61696 23.517 7.60599 23.5741 7.60653 23.6316Z" stroke="white" stroke-width="4" mask="url(#path-1-inside-1_1832_321)"/>
<path d="M26.5142 30C27.426 29.9997 28.3173 29.7317 29.0754 29.2299C29.8334 28.7281 30.4241 28.0151 30.7729 27.181C31.1216 26.3469 31.2127 25.4291 31.0346 24.5437C30.8565 23.6584 30.4172 22.8452 29.7723 22.207C29.1274 21.5687 28.3058 21.1341 27.4115 20.9581C26.5171 20.7821 25.5901 20.8726 24.7477 21.2182C23.9052 21.5637 23.1852 22.1488 22.6787 22.8994C22.1721 23.6501 21.9017 24.5325 21.9017 25.4353C21.903 26.6458 22.3894 27.8063 23.2542 28.6622C24.119 29.518 25.2914 29.9991 26.5142 30ZM26.5142 21.7419C27.252 21.7419 27.9733 21.9585 28.5868 22.3644C29.2003 22.7702 29.6785 23.347 29.9609 24.0219C30.2432 24.6968 30.3171 25.4394 30.1732 26.1558C30.0292 26.8723 29.6739 27.5303 29.1522 28.0469C28.6304 28.5634 27.9657 28.9152 27.242 29.0577C26.5183 29.2002 25.7682 29.127 25.0865 28.8475C24.4048 28.5679 23.8222 28.0946 23.4122 27.4872C23.0023 26.8798 22.7835 26.1658 22.7835 25.4353C22.7848 24.4561 23.1783 23.5175 23.8776 22.8251C24.577 22.1327 25.5251 21.7432 26.5142 21.7419Z" stroke="white" stroke-width="4" mask="url(#path-1-inside-1_1832_321)"/>
<path d="M26.5142 27.6791C27.1153 27.6791 27.6918 27.4427 28.1168 27.0219C28.5418 26.6011 28.7806 26.0304 28.7806 25.4353C28.7806 24.8402 28.5418 24.2695 28.1168 23.8487C27.6918 23.4279 27.1153 23.1915 26.5142 23.1915C26.4007 23.1963 26.2936 23.2444 26.2151 23.3255C26.1365 23.4067 26.0927 23.5148 26.0927 23.6272C26.0927 23.7396 26.1365 23.8476 26.2151 23.9288C26.2936 24.01 26.4007 24.058 26.5142 24.0629C26.8089 24.0632 27.0958 24.1566 27.3332 24.3294C27.5706 24.5022 27.7462 24.7455 27.8344 25.0239C27.9226 25.3023 27.9189 25.6012 27.8237 25.8774C27.7286 26.1535 27.5469 26.3924 27.3053 26.5593C27.0636 26.7263 26.7744 26.8126 26.4798 26.8057C26.1852 26.7988 25.9005 26.6991 25.667 26.5211C25.4335 26.343 25.2635 26.0959 25.1816 25.8157C25.0997 25.5354 25.1102 25.2366 25.2116 24.9626C25.2516 24.8542 25.2465 24.7345 25.1973 24.6298C25.1482 24.525 25.059 24.444 24.9495 24.4043C24.8399 24.3647 24.719 24.3698 24.6132 24.4184C24.5075 24.4671 24.4256 24.5554 24.3855 24.6638C24.2602 25.0032 24.2195 25.3676 24.2669 25.7259C24.3143 26.0842 24.4484 26.4259 24.6578 26.722C24.8671 27.018 25.1456 27.2596 25.4696 27.4262C25.7935 27.5928 26.1532 27.6796 26.5183 27.6791H26.5142Z" stroke="white" stroke-width="4" mask="url(#path-1-inside-1_1832_321)"/>
<path d="M17.9996 1.91977C18.1162 1.91977 18.228 1.87391 18.3105 1.79228C18.3929 1.71065 18.4393 1.59993 18.4393 1.48449V0.435277C18.4393 0.319834 18.3929 0.20912 18.3105 0.12749C18.228 0.0458594 18.1162 0 17.9996 0C17.883 0 17.7711 0.0458594 17.6887 0.12749C17.6062 0.20912 17.5599 0.319834 17.5599 0.435277V1.48449C17.5599 1.59993 17.6062 1.71065 17.6887 1.79228C17.7711 1.87391 17.883 1.91977 17.9996 1.91977Z" stroke="white" stroke-width="4" mask="url(#path-1-inside-1_1832_321)"/>
<path d="M15.5953 2.63359C15.6778 2.63331 15.7585 2.61012 15.8283 2.56667C15.8981 2.52322 15.9542 2.46125 15.9901 2.38781C16.0261 2.31437 16.0406 2.2324 16.0318 2.15124C16.0231 2.07008 15.9915 1.99297 15.9407 1.9287L15.241 1.0484C15.167 0.962893 15.0625 0.909009 14.9494 0.898022C14.8362 0.887035 14.7231 0.919795 14.6338 0.989449C14.5445 1.0591 14.4858 1.16025 14.4701 1.27174C14.4544 1.38323 14.4828 1.49642 14.5495 1.58762L15.2492 2.46711C15.2904 2.51898 15.3429 2.56092 15.4029 2.58975C15.4629 2.61859 15.5287 2.63358 15.5953 2.63359Z" stroke="white" stroke-width="4" mask="url(#path-1-inside-1_1832_321)"/>
<path d="M20.1332 2.5402C20.1784 2.57566 20.2304 2.6019 20.2859 2.61742C20.3415 2.63295 20.3996 2.63744 20.4569 2.63065C20.5143 2.62386 20.5697 2.60591 20.62 2.57784C20.6703 2.54978 20.7145 2.51215 20.75 2.46711L21.4505 1.58762C21.5172 1.49642 21.5456 1.38323 21.5299 1.27174C21.5142 1.16025 21.4555 1.0591 21.3662 0.989449C21.2769 0.919795 21.1638 0.887035 21.0506 0.898022C20.9375 0.909009 20.833 0.962893 20.759 1.0484L20.0593 1.9287C20.0236 1.97364 19.9972 2.02511 19.9815 2.08017C19.9659 2.13523 19.9614 2.1928 19.9682 2.24959C19.9751 2.30639 19.9932 2.36128 20.0215 2.41114C20.0498 2.46101 20.0877 2.50486 20.1332 2.5402Z" stroke="white" stroke-width="4" mask="url(#path-1-inside-1_1832_321)"/>
<path d="M23.5784 15.8178C23.5785 15.7605 23.5672 15.7038 23.5451 15.6509C23.5231 15.598 23.4907 15.55 23.4499 15.5095C23.409 15.4689 23.3605 15.4368 23.3071 15.4149C23.2537 15.393 23.1965 15.3817 23.1387 15.3817H22.0141C21.9006 15.3865 21.7935 15.4345 21.715 15.5157C21.6364 15.5969 21.5926 15.705 21.5926 15.8174C21.5926 15.9298 21.6364 16.0378 21.715 16.119C21.7935 16.2002 21.9006 16.2482 22.0141 16.253H23.1387C23.2553 16.253 23.3671 16.2072 23.4496 16.1256C23.532 16.0439 23.5784 15.9332 23.5784 15.8178Z" stroke="white" stroke-width="4" mask="url(#path-1-inside-1_1832_321)"/>
<path d="M36 17.8374C35.9988 17.3689 35.8881 16.9071 35.6765 16.4881C35.4648 16.0691 35.1581 15.7043 34.7802 15.4223L31.3514 12.878C31.1297 12.7139 30.942 12.5091 30.7985 12.2746L28.5887 8.67143C28.3153 8.2294 27.9323 7.86394 27.476 7.6098C27.0197 7.35565 26.5053 7.22127 25.9818 7.21942H2.48219C1.82408 7.22007 1.1931 7.47918 0.727739 7.93988C0.262378 8.40059 0.000653344 9.02525 1.84882e-06 9.67679V23.414C-0.000594228 23.8971 0.142958 24.3697 0.412644 24.7723C0.68233 25.175 1.06614 25.4898 1.51589 25.6773C1.62286 25.7201 1.74256 25.7197 1.84917 25.6759C1.95578 25.6322 2.04075 25.5488 2.08576 25.4436C2.13076 25.3384 2.13218 25.2199 2.08972 25.1136C2.04725 25.0074 1.96431 24.922 1.85877 24.8757C1.56832 24.7546 1.32045 24.5512 1.14622 24.2912C0.971995 24.0312 0.87916 23.726 0.879351 23.414V9.67679C0.880002 9.25621 1.04911 8.85306 1.34958 8.55574C1.65006 8.25843 2.05737 8.09122 2.48219 8.09079H25.9818C26.3543 8.09184 26.7204 8.18733 27.045 8.36816C27.3697 8.54898 27.6422 8.80912 27.8365 9.12376L30.0472 12.7262C30.2486 13.0558 30.5124 13.344 30.824 13.5748L34.252 16.1182C34.521 16.3189 34.7395 16.5786 34.8902 16.8769C35.0409 17.1751 35.1198 17.5039 35.1206 17.8374V23.414C35.12 23.8346 34.9509 24.2377 34.6504 24.535C34.3499 24.8324 33.9426 24.9996 33.5178 25H32.8616C32.745 25 32.6331 25.0459 32.5507 25.1275C32.4682 25.2091 32.4219 25.3198 32.4219 25.4353C32.4219 25.5507 32.4682 25.6614 32.5507 25.7431C32.6331 25.8247 32.745 25.8706 32.8616 25.8706H33.5178C34.1758 25.8699 34.8066 25.6109 35.272 25.1504C35.7373 24.6898 35.9991 24.0654 36 23.414V17.8374Z" stroke="white" stroke-width="4" mask="url(#path-1-inside-1_1832_321)"/>
<path d="M13.885 25.4353C13.885 25.5507 13.9313 25.6614 14.0138 25.7431C14.0963 25.8247 14.2081 25.8706 14.3247 25.8706H20.3431C20.4598 25.8706 20.5716 25.8247 20.654 25.7431C20.7365 25.6614 20.7828 25.5507 20.7828 25.4353C20.7828 25.3198 20.7365 25.2091 20.654 25.1275C20.5716 25.0459 20.4598 25 20.3431 25H14.3222C14.2061 25.0006 14.0948 25.0468 14.0129 25.1283C13.931 25.2099 13.885 25.3203 13.885 25.4353Z" stroke="white" stroke-width="4" mask="url(#path-1-inside-1_1832_321)"/>
<path d="M15.5518 5.44989V5.96069C15.5518 6.07614 15.5982 6.18685 15.6806 6.26848C15.7631 6.35011 15.8749 6.39597 15.9915 6.39597C16.1081 6.39597 16.22 6.35011 16.3024 6.26848C16.3849 6.18685 16.4312 6.07614 16.4312 5.96069V5.44989C16.4312 5.03809 16.5964 4.64315 16.8906 4.35197C17.1847 4.06078 17.5836 3.89719 17.9996 3.89719C18.4155 3.89719 18.8145 4.06078 19.1086 4.35197C19.4027 4.64315 19.568 5.03809 19.568 5.44989V5.96069C19.568 6.07614 19.6143 6.18685 19.6968 6.26848C19.7792 6.35011 19.891 6.39597 20.0077 6.39597C20.1243 6.39597 20.2361 6.35011 20.3185 6.26848C20.401 6.18685 20.4473 6.07614 20.4473 5.96069V5.44989C20.4473 4.80721 20.1894 4.19084 19.7304 3.73639C19.2714 3.28194 18.6488 3.02664 17.9996 3.02664C17.3504 3.02664 16.7278 3.28194 16.2688 3.73639C15.8097 4.19084 15.5518 4.80721 15.5518 5.44989Z" stroke="white" stroke-width="4" mask="url(#path-1-inside-1_1832_321)"/>
<path d="M26.6052 10.2753C26.4544 10.0157 26.2372 9.79995 25.9754 9.64984C25.7136 9.49972 25.4165 9.42051 25.1139 9.42017H22.5505C22.3786 9.42049 22.2085 9.45437 22.0498 9.51987C21.8911 9.58537 21.747 9.68121 21.6258 9.80189C21.5046 9.92258 21.4086 10.0657 21.3433 10.2232C21.2781 10.3807 21.2448 10.5493 21.2455 10.7195V12.9121C21.2457 13.255 21.3833 13.5838 21.6281 13.8264C21.873 14.0689 22.205 14.2053 22.5514 14.2058H26.5084C26.7503 14.2057 26.9879 14.1426 27.1974 14.0229C27.4069 13.9031 27.5808 13.7309 27.7018 13.5236C27.8229 13.3163 27.8866 13.0811 27.8868 12.8416C27.887 12.6021 27.8235 12.3668 27.7028 12.1593L26.6052 10.2753ZM26.9399 13.0867C26.8962 13.1617 26.8331 13.2238 26.7571 13.2666C26.6812 13.3094 26.595 13.3314 26.5076 13.3304H22.5505C22.4373 13.3301 22.3288 13.2855 22.2489 13.2061C22.1689 13.1268 22.124 13.0193 22.124 12.9073V10.7195C22.124 10.6075 22.1689 10.5001 22.2489 10.4209C22.3289 10.3417 22.4374 10.2972 22.5505 10.2972H25.1139C25.2617 10.2975 25.4068 10.3361 25.5347 10.4092C25.6627 10.4823 25.769 10.5873 25.8432 10.7138L26.9399 12.597C26.9836 12.6714 27.0066 12.7559 27.0066 12.8419C27.0066 12.9279 26.9836 13.0124 26.9399 13.0867Z" stroke="white" stroke-width="4" mask="url(#path-1-inside-1_1832_321)"/>
<path d="M13.3822 11.6737H10.722C10.6054 11.6737 10.4935 11.7196 10.4111 11.8012C10.3286 11.8828 10.2823 11.9935 10.2823 12.109V13.5382H8.83861C8.722 13.5382 8.61017 13.5841 8.52771 13.6657C8.44526 13.7474 8.39893 13.8581 8.39893 13.9735V16.6071C8.39893 16.7226 8.44526 16.8333 8.52771 16.9149C8.61017 16.9965 8.722 17.0424 8.83861 17.0424H10.2823V17.1236C10.2823 17.239 10.3286 17.3498 10.4111 17.4314C10.4935 17.513 10.6054 17.5589 10.722 17.5589C10.8386 17.5589 10.9504 17.513 11.0329 17.4314C11.1153 17.3498 11.1617 17.239 11.1617 17.1236V16.6071C11.1618 16.5499 11.1505 16.4932 11.1284 16.4403C11.1064 16.3874 11.074 16.3393 11.0332 16.2988C10.9923 16.2583 10.9438 16.2262 10.8904 16.2042C10.837 16.1823 10.7798 16.171 10.722 16.171H9.27828V14.4088H10.722C10.8386 14.4088 10.9504 14.3629 11.0329 14.2813C11.1153 14.1997 11.1617 14.089 11.1617 13.9735V12.5443H12.9425V13.9735C12.9425 14.0307 12.9539 14.0873 12.976 14.1401C12.9981 14.1929 13.0305 14.2409 13.0713 14.2813C13.1121 14.3217 13.1606 14.3538 13.2139 14.3757C13.2673 14.3975 13.3244 14.4088 13.3822 14.4088H14.8251V16.171H13.3822C13.3244 16.171 13.2671 16.1823 13.2137 16.2042C13.1603 16.2262 13.1118 16.2583 13.071 16.2988C13.0302 16.3393 12.9978 16.3874 12.9757 16.4403C12.9537 16.4932 12.9424 16.5499 12.9425 16.6071V18.0356H10.722C10.6086 18.0404 10.5014 18.0884 10.4229 18.1696C10.3443 18.2508 10.3005 18.3588 10.3005 18.4713C10.3005 18.5837 10.3443 18.6917 10.4229 18.7729C10.5014 18.8541 10.6086 18.9021 10.722 18.9069H13.3822C13.44 18.9069 13.4972 18.8956 13.5506 18.8737C13.604 18.8518 13.6525 18.8197 13.6934 18.7792C13.7342 18.7387 13.7666 18.6906 13.7886 18.6377C13.8107 18.5848 13.822 18.5281 13.8219 18.4708V17.0424H15.2656C15.3233 17.0424 15.3805 17.0311 15.4338 17.0093C15.4872 16.9874 15.5356 16.9553 15.5765 16.9149C15.6173 16.8745 15.6497 16.8265 15.6718 16.7737C15.6939 16.7209 15.7052 16.6643 15.7052 16.6071V13.9735C15.7052 13.9164 15.6939 13.8598 15.6718 13.807C15.6497 13.7541 15.6173 13.7062 15.5765 13.6657C15.5356 13.6253 15.4872 13.5933 15.4338 13.5714C15.3805 13.5495 15.3233 13.5382 15.2656 13.5382H13.8219V12.109C13.8219 12.0518 13.8105 11.9952 13.7884 11.9424C13.7663 11.8896 13.7339 11.8416 13.6931 11.8012C13.6523 11.7608 13.6038 11.7287 13.5504 11.7068C13.4971 11.685 13.4399 11.6737 13.3822 11.6737Z" stroke="white" stroke-width="4" mask="url(#path-1-inside-1_1832_321)"/>
</svg>
